<svg width="328" height="111" viewBox="0 0 328 111" fill="none" xmlns="http://www.w3.org/2000/svg">
<path d="M116.056 77.0958C115.352 76.1571 115 74.9836 115 73.5755C115 71.5415 116.017 69.8204 118.051 68.4123C119.146 67.7082 120.281 67.3562 121.454 67.3562C123.097 67.3562 124.661 68.0994 126.148 69.5857C128.495 72.0109 130.92 73.8102 133.423 74.9836C136.005 76.1571 139.095 76.7438 142.693 76.7438C148.795 76.5091 151.846 74.2013 151.846 69.8204C151.846 67.5518 150.79 65.8307 148.678 64.6572C146.644 63.4838 143.437 62.3103 139.056 61.1369C134.518 59.8852 130.802 58.6335 127.908 57.3818C125.092 56.1301 122.627 54.2526 120.515 51.7493C118.481 49.1677 117.464 45.7255 117.464 41.4229C117.464 37.6678 118.52 34.4213 120.633 31.6832C122.823 28.8669 125.639 26.7156 129.081 25.2292C132.602 23.6646 136.318 22.8823 140.229 22.8823C144.219 22.8823 148.209 23.6255 152.198 25.1119C156.188 26.5983 159.317 28.7887 161.586 31.6832C162.603 32.9349 163.112 34.343 163.112 35.9076C163.112 37.7069 162.368 39.1933 160.882 40.3668C159.787 41.2273 158.535 41.6576 157.127 41.6576C155.406 41.6576 153.998 41.11 152.903 40.0147C151.494 38.2937 149.656 36.9246 147.387 35.9076C145.197 34.8907 142.693 34.3822 139.877 34.3822C133.932 34.3822 130.959 36.5335 130.959 40.8362C130.959 42.5572 131.507 43.9654 132.602 45.0606C133.697 46.0776 135.066 46.899 136.709 47.5248C138.43 48.0724 140.816 48.7765 143.867 49.637C148.091 50.8105 151.612 52.0231 154.428 53.2747C157.244 54.5264 159.63 56.4431 161.586 59.0247C163.542 61.6063 164.52 65.0093 164.52 69.2337C164.52 73.067 163.385 76.4309 161.117 79.3254C158.848 82.1417 155.914 84.293 152.316 85.7794C148.795 87.2658 145.158 88.0089 141.403 88.0089C136.239 88.0089 131.428 87.1484 126.969 85.4274C122.51 83.7063 118.872 80.9291 116.056 77.0958Z" fill="#0C0654"/>
<path d="M199.89 22.8823C207.635 22.8823 212.994 25.2683 215.966 30.0404C218.939 34.7342 220.426 41.2664 220.426 49.637V79.6774C220.426 81.7114 219.761 83.4325 218.431 84.8406C217.101 86.1705 215.419 86.8355 213.385 86.8355C211.351 86.8355 209.669 86.1705 208.339 84.8406C207.009 83.4325 206.344 81.7114 206.344 79.6774V49.637C206.344 45.3344 205.484 41.9705 203.763 39.5453C202.12 37.042 199.186 35.7903 194.962 35.7903C190.581 35.7903 187.139 37.1202 184.635 39.78C182.21 42.3616 180.998 45.6473 180.998 49.637V79.6774C180.998 81.7114 180.333 83.4325 179.003 84.8406C177.673 86.1705 175.991 86.8355 173.957 86.8355C171.923 86.8355 170.241 86.1705 168.911 84.8406C167.581 83.4325 166.916 81.7114 166.916 79.6774V7.15806C166.916 5.12407 167.581 3.44212 168.911 2.11221C170.241 0.704069 171.923 0 173.957 0C175.991 0 177.673 0.704069 179.003 2.11221C180.333 3.44212 180.998 5.12407 180.998 7.15806V33.0914C183.11 30.2751 185.77 27.8891 188.977 25.9333C192.263 23.8993 195.9 22.8823 199.89 22.8823Z" fill="#0C0654"/>
<path d="M238.372 79.6774C238.372 81.7114 237.707 83.4325 236.377 84.8406C235.047 86.1705 233.365 86.8355 231.331 86.8355C229.297 86.8355 227.615 86.1705 226.285 84.8406C224.956 83.4325 224.291 81.7114 224.291 79.6774V31.2138C224.291 29.1799 224.956 27.4979 226.285 26.168C227.615 24.7598 229.297 24.0558 231.331 24.0558C233.365 24.0558 235.047 24.7598 236.377 26.168C237.707 27.4979 238.372 29.1799 238.372 31.2138V79.6774ZM231.214 16.4283C228.554 16.4283 226.677 15.9981 225.581 15.1375C224.486 14.277 223.939 12.7515 223.939 10.5611V8.33151C223.939 6.14107 224.525 4.61558 225.699 3.75505C226.872 2.89451 228.75 2.46425 231.331 2.46425C234.069 2.46425 235.986 2.89451 237.081 3.75505C238.176 4.61558 238.724 6.14107 238.724 8.33151V10.5611C238.724 12.8297 238.137 14.3943 236.964 15.2549C235.869 16.0372 233.952 16.4283 231.214 16.4283Z" fill="#0C0654"/>
<path d="M274.788 12.4386C272.128 12.4386 270.25 13.2209 269.155 14.7855C268.06 16.2719 267.512 17.9147 267.512 19.714V25.2292H278.191C280.068 25.2292 281.633 25.8551 282.884 27.1068C284.136 28.2802 284.762 29.8057 284.762 31.6832C284.762 33.5607 284.136 35.1253 282.884 36.377C281.633 37.5505 280.068 38.1372 278.191 38.1372H267.512V79.6774C267.512 81.7114 266.847 83.4325 265.517 84.8406C264.187 86.1705 262.505 86.8355 260.471 86.8355C258.437 86.8355 256.756 86.1705 255.426 84.8406C254.096 83.4325 253.431 81.7114 253.431 79.6774V38.1372H247.094C245.217 38.1372 243.652 37.5505 242.4 36.377C241.149 35.1253 240.523 33.5607 240.523 31.6832C240.523 29.8057 241.149 28.2802 242.4 27.1068C243.652 25.8551 245.217 25.2292 247.094 25.2292H253.431V19.8313C253.431 13.9641 255.426 9.19204 259.415 5.51523C263.483 1.83841 269.311 0 276.9 0C279.794 0 282.298 0.586726 284.41 1.76018C286.6 2.93363 287.696 4.73292 287.696 7.15806C287.696 9.03558 287.148 10.5611 286.053 11.7345C284.958 12.908 283.628 13.4947 282.063 13.4947C281.672 13.4947 281.242 13.4556 280.772 13.3774C280.381 13.2991 279.951 13.2209 279.481 13.1427C277.604 12.6733 276.039 12.4386 274.788 12.4386Z" fill="#0C0654"/>
<path d="M322.195 73.5755C323.29 73.5755 324.268 74.1231 325.129 75.2183C326.067 76.2353 326.537 77.6043 326.537 79.3254C326.537 81.4376 325.363 83.2369 323.017 84.7233C320.748 86.1314 318.166 86.8355 315.272 86.8355C310.421 86.8355 306.314 85.8185 302.95 83.7845C299.665 81.6723 298.022 77.2523 298.022 70.5245V38.1372H292.624C290.747 38.1372 289.182 37.5114 287.93 36.2597C286.679 35.008 286.053 33.4434 286.053 31.5659C286.053 29.7666 286.679 28.2802 287.93 27.1068C289.182 25.8551 290.747 25.2292 292.624 25.2292H298.022V17.7191C298.022 15.6851 298.687 14.0032 300.017 12.6733C301.425 11.2651 303.146 10.5611 305.18 10.5611C307.136 10.5611 308.779 11.2651 310.109 12.6733C311.438 14.0032 312.103 15.6851 312.103 17.7191V25.2292H320.435C322.312 25.2292 323.877 25.8551 325.129 27.1068C326.38 28.3584 327.006 29.923 327.006 31.8006C327.006 33.5999 326.38 35.1253 325.129 36.377C323.877 37.5505 322.312 38.1372 320.435 38.1372H312.103V69.9378C312.103 71.5806 312.534 72.7932 313.394 73.5755C314.255 74.2795 315.428 74.6316 316.915 74.6316C317.54 74.6316 318.401 74.4751 319.496 74.1622C320.435 73.7711 321.335 73.5755 322.195 73.5755Z" fill="#0C0654"/>
<path d="M46.5861 24.0558C48.6201 24.0558 50.302 24.7598 51.6319 26.168C52.9618 27.4979 53.6268 29.1799 53.6268 31.2138V61.0195C53.6268 69.4684 51.2799 76.0788 46.5861 80.8509C41.9705 85.6229 35.36 88.0089 26.7547 88.0089C18.1494 88.0089 11.539 85.6229 6.92337 80.8509C2.30779 76.0788 0 69.4684 0 61.0195V31.2138C0 29.1799 0.664956 27.4979 1.99487 26.168C3.32478 24.7598 5.00673 24.0558 7.04072 24.0558C9.0747 24.0558 10.7567 24.7598 12.0866 26.168C13.4165 27.4979 14.0814 29.1799 14.0814 31.2138V61.0195C14.0814 65.7916 15.1375 69.3511 17.2498 71.698C19.362 73.9666 22.5303 75.101 26.7547 75.101C31.0574 75.101 34.2648 73.9666 36.377 71.698C38.4892 69.3511 39.5454 65.7916 39.5454 61.0195V31.2138C39.5454 29.1799 40.2103 27.4979 41.5402 26.168C42.8701 24.7598 44.5521 24.0558 46.5861 24.0558Z" fill="#14DABB"/>
<path d="M88.4682 22.8823C93.8661 22.8823 98.7555 24.2905 103.136 27.1068C107.517 29.8448 110.959 33.6781 113.463 38.6066C116.044 43.5351 117.335 49.1286 117.335 55.387C117.335 61.6454 116.084 67.278 113.58 72.2847C111.077 77.2132 107.635 81.0856 103.254 83.9019C98.9511 86.6399 94.1791 88.0089 88.9376 88.0089C85.1826 88.0089 81.6231 87.2658 78.2592 85.7794C74.9735 84.2148 72.2355 82.3373 70.045 80.1468V103.146C70.045 105.18 69.3801 106.862 68.0502 108.192C66.7203 109.6 65.0383 110.305 63.0043 110.305C60.9703 110.305 59.2884 109.64 57.9585 108.31C56.6286 106.98 55.9636 105.259 55.9636 103.146V31.2138C55.9636 29.1799 56.6286 27.4979 57.9585 26.168C59.2884 24.7598 60.9703 24.0558 63.0043 24.0558C65.0383 24.0558 66.7203 24.7598 68.0502 26.168C69.3801 27.4979 70.045 29.1799 70.045 31.2138V31.6832C71.9226 29.3363 74.5433 27.3023 77.9072 25.5813C81.2711 23.782 84.7914 22.8823 88.4682 22.8823ZM86.7081 75.101C91.7148 75.101 95.8219 73.2234 99.0293 69.4684C102.237 65.7133 103.84 61.0195 103.84 55.387C103.84 49.7544 102.237 45.0997 99.0293 41.4229C95.9001 37.6678 91.793 35.7903 86.7081 35.7903C81.6231 35.7903 77.4769 37.6678 74.2695 41.4229C71.062 45.0997 69.4583 49.7544 69.4583 55.387C69.4583 61.0195 71.062 65.7133 74.2695 69.4684C77.4769 73.2234 81.6231 75.101 86.7081 75.101Z" fill="#14DABB"/>
</svg>
